<svg id="svg" version="1.1" xmlns="http://www.w3.org/2000/svg" xmlns:xlink="http://www.w3.org/1999/xlink" width="400" height="400" viewBox="0, 0, 400,400"><g id="svgg"><path id="path0" d="M174.400 0.400 C 174.400 0.647,172.321 0.800,168.963 0.800 C 163.862 0.800,163.512 0.849,163.316 1.600 C 163.125 2.329,162.770 2.400,159.316 2.400 C 155.862 2.400,155.507 2.471,155.316 3.200 C 155.129 3.915,154.770 4.000,151.953 4.000 C 149.067 4.000,148.800 4.068,148.800 4.800 C 148.800 5.510,148.533 5.600,146.427 5.600 C 144.405 5.600,144.016 5.718,143.800 6.400 C 143.577 7.104,143.195 7.200,140.620 7.200 C 138.030 7.200,137.669 7.292,137.484 8.000 C 137.307 8.678,136.938 8.800,135.064 8.800 C 133.205 8.800,132.814 8.927,132.600 9.600 C 132.409 10.201,131.995 10.400,130.936 10.400 C 129.862 10.400,129.475 10.591,129.316 11.200 C 129.139 11.877,128.770 12.000,126.916 12.000 C 125.062 12.000,124.693 12.123,124.516 12.800 C 124.352 13.427,123.970 13.600,122.753 13.600 C 121.467 13.600,121.200 13.737,121.200 14.400 C 121.200 15.105,120.933 15.200,118.963 15.200 C 117.062 15.200,116.694 15.320,116.516 16.000 C 116.357 16.606,115.970 16.800,114.916 16.800 C 113.862 16.800,113.475 16.994,113.316 17.600 C 113.157 18.206,112.770 18.400,111.716 18.400 C 110.662 18.400,110.275 18.594,110.116 19.200 C 109.957 19.806,109.570 20.000,108.516 20.000 C 107.462 20.000,107.075 20.194,106.916 20.800 C 106.757 21.406,106.370 21.600,105.316 21.600 C 104.262 21.600,103.875 21.794,103.716 22.400 C 103.557 23.006,103.170 23.200,102.116 23.200 C 101.062 23.200,100.675 23.394,100.516 24.000 C 100.400 24.443,99.970 24.800,99.553 24.800 C 99.067 24.800,98.800 25.083,98.800 25.600 C 98.800 26.267,98.533 26.400,97.200 26.400 C 95.867 26.400,95.600 26.533,95.600 27.200 C 95.600 27.852,95.333 28.000,94.163 28.000 C 93.062 28.000,92.676 28.187,92.516 28.800 C 92.400 29.243,91.970 29.600,91.553 29.600 C 91.067 29.600,90.800 29.883,90.800 30.400 C 90.800 31.052,90.533 31.200,89.363 31.200 C 88.262 31.200,87.876 31.387,87.716 32.000 C 87.600 32.443,87.170 32.800,86.753 32.800 C 86.267 32.800,86.000 33.083,86.000 33.600 C 86.000 34.252,85.733 34.400,84.563 34.400 C 83.462 34.400,83.076 34.587,82.916 35.200 C 82.800 35.643,82.370 36.000,81.953 36.000 C 81.467 36.000,81.200 36.283,81.200 36.800 C 81.200 37.333,80.933 37.600,80.400 37.600 C 79.867 37.600,79.600 37.867,79.600 38.400 C 79.600 39.052,79.333 39.200,78.163 39.200 C 77.062 39.200,76.676 39.387,76.516 40.000 C 76.401 40.440,76.041 40.800,75.716 40.800 C 75.391 40.800,75.031 41.160,74.916 41.600 C 74.800 42.043,74.370 42.400,73.953 42.400 C 73.481 42.400,73.200 42.682,73.200 43.155 C 73.200 43.707,72.809 43.984,71.756 44.182 C 70.805 44.360,70.242 44.718,70.109 45.226 C 69.998 45.652,69.568 46.000,69.153 46.000 C 68.667 46.000,68.400 46.283,68.400 46.800 C 68.400 47.333,68.133 47.600,67.600 47.600 C 67.067 47.600,66.800 47.867,66.800 48.400 C 66.800 48.933,66.533 49.200,66.000 49.200 C 65.467 49.200,65.200 49.467,65.200 50.000 C 65.200 50.533,64.933 50.800,64.400 50.800 C 63.867 50.800,63.600 51.067,63.600 51.600 C 63.600 52.133,63.333 52.400,62.800 52.400 C 62.267 52.400,62.000 52.667,62.000 53.200 C 62.000 53.733,61.733 54.000,61.200 54.000 C 60.667 54.000,60.400 54.267,60.400 54.800 C 60.400 55.333,60.133 55.600,59.600 55.600 C 59.067 55.600,58.800 55.867,58.800 56.400 C 58.800 56.933,58.533 57.200,58.000 57.200 C 57.467 57.200,57.200 57.467,57.200 58.000 C 57.200 58.533,56.933 58.800,56.400 58.800 C 55.867 58.800,55.600 59.067,55.600 59.600 C 55.600 60.133,55.333 60.400,54.800 60.400 C 54.267 60.400,54.000 60.667,54.000 61.200 C 54.000 61.733,53.733 62.000,53.200 62.000 C 52.667 62.000,52.400 62.267,52.400 62.800 C 52.400 63.333,52.133 63.600,51.600 63.600 C 51.067 63.600,50.800 63.867,50.800 64.400 C 50.800 64.933,50.533 65.200,50.000 65.200 C 49.467 65.200,49.200 65.467,49.200 66.000 C 49.200 66.533,48.933 66.800,48.400 66.800 C 47.867 66.800,47.600 67.067,47.600 67.600 C 47.600 68.133,47.333 68.400,46.800 68.400 C 46.283 68.400,46.000 68.667,46.000 69.153 C 46.000 69.568,45.652 69.998,45.226 70.109 C 44.718 70.242,44.360 70.805,44.182 71.756 C 43.984 72.809,43.707 73.200,43.155 73.200 C 42.682 73.200,42.400 73.481,42.400 73.953 C 42.400 74.370,42.043 74.800,41.600 74.916 C 41.160 75.031,40.800 75.391,40.800 75.716 C 40.800 76.041,40.440 76.401,40.000 76.516 C 39.387 76.676,39.200 77.062,39.200 78.163 C 39.200 79.333,39.052 79.600,38.400 79.600 C 37.867 79.600,37.600 79.867,37.600 80.400 C 37.600 80.933,37.333 81.200,36.800 81.200 C 36.283 81.200,36.000 81.467,36.000 81.953 C 36.000 82.370,35.643 82.800,35.200 82.916 C 34.587 83.076,34.400 83.462,34.400 84.563 C 34.400 85.733,34.252 86.000,33.600 86.000 C 33.083 86.000,32.800 86.267,32.800 86.753 C 32.800 87.170,32.443 87.600,32.000 87.716 C 31.387 87.876,31.200 88.262,31.200 89.363 C 31.200 90.533,31.052 90.800,30.400 90.800 C 29.883 90.800,29.600 91.067,29.600 91.553 C 29.600 91.970,29.243 92.400,28.800 92.516 C 28.187 92.676,28.000 93.062,28.000 94.163 C 28.000 95.333,27.852 95.600,27.200 95.600 C 26.533 95.600,26.400 95.867,26.400 97.200 C 26.400 98.533,26.267 98.800,25.600 98.800 C 25.083 98.800,24.800 99.067,24.800 99.553 C 24.800 99.970,24.443 100.400,24.000 100.516 C 23.394 100.675,23.200 101.062,23.200 102.116 C 23.200 103.170,23.006 103.557,22.400 103.716 C 21.794 103.875,21.600 104.262,21.600 105.316 C 21.600 106.370,21.406 106.757,20.800 106.916 C 20.194 107.075,20.000 107.462,20.000 108.516 C 20.000 109.570,19.806 109.957,19.200 110.116 C 18.594 110.275,18.400 110.662,18.400 111.716 C 18.400 112.770,18.206 113.157,17.600 113.316 C 16.994 113.475,16.800 113.862,16.800 114.916 C 16.800 115.970,16.606 116.357,16.000 116.516 C 15.320 116.694,15.200 117.062,15.200 118.963 C 15.200 120.933,15.105 121.200,14.400 121.200 C 13.737 121.200,13.600 121.467,13.600 122.753 C 13.600 123.970,13.427 124.352,12.800 124.516 C 12.123 124.693,12.000 125.062,12.000 126.916 C 12.000 128.770,11.877 129.139,11.200 129.316 C 10.591 129.475,10.400 129.862,10.400 130.936 C 10.400 131.995,10.201 132.409,9.600 132.600 C 8.927 132.814,8.800 133.205,8.800 135.064 C 8.800 136.938,8.678 137.307,8.000 137.484 C 7.292 137.669,7.200 138.030,7.200 140.620 C 7.200 143.195,7.104 143.577,6.400 143.800 C 5.718 144.016,5.600 144.405,5.600 146.427 C 5.600 148.533,5.510 148.800,4.800 148.800 C 4.068 148.800,4.000 149.067,4.000 151.953 C 4.000 154.770,3.915 155.129,3.200 155.316 C 2.471 155.507,2.400 155.862,2.400 159.316 C 2.400 162.770,2.329 163.125,1.600 163.316 C 0.849 163.512,0.800 163.862,0.800 168.963 C 0.800 172.321,0.647 174.400,0.400 174.400 C 0.138 174.400,0.000 183.200,0.000 200.000 C 0.000 216.800,0.138 225.600,0.400 225.600 C 0.647 225.600,0.800 227.679,0.800 231.037 C 0.800 236.138,0.849 236.488,1.600 236.684 C 2.329 236.875,2.400 237.230,2.400 240.684 C 2.400 244.138,2.471 244.493,3.200 244.684 C 3.915 244.871,4.000 245.230,4.000 248.047 C 4.000 250.933,4.068 251.200,4.800 251.200 C 5.510 251.200,5.600 251.467,5.600 253.573 C 5.600 255.595,5.718 255.984,6.400 256.200 C 7.104 256.423,7.200 256.805,7.200 259.380 C 7.200 261.970,7.292 262.331,8.000 262.516 C 8.678 262.693,8.800 263.062,8.800 264.936 C 8.800 266.795,8.927 267.186,9.600 267.400 C 10.201 267.591,10.400 268.005,10.400 269.064 C 10.400 270.138,10.591 270.525,11.200 270.684 C 11.877 270.861,12.000 271.230,12.000 273.084 C 12.000 274.938,12.123 275.307,12.800 275.484 C 13.427 275.648,13.600 276.030,13.600 277.247 C 13.600 278.533,13.737 278.800,14.400 278.800 C 15.105 278.800,15.200 279.067,15.200 281.037 C 15.200 282.938,15.320 283.306,16.000 283.484 C 16.606 283.643,16.800 284.030,16.800 285.084 C 16.800 286.138,16.994 286.525,17.600 286.684 C 18.206 286.843,18.400 287.230,18.400 288.284 C 18.400 289.338,18.594 289.725,19.200 289.884 C 19.806 290.043,20.000 290.430,20.000 291.484 C 20.000 292.538,20.194 292.925,20.800 293.084 C 21.406 293.243,21.600 293.630,21.600 294.684 C 21.600 295.738,21.794 296.125,22.400 296.284 C 23.006 296.443,23.200 296.830,23.200 297.884 C 23.200 298.938,23.394 299.325,24.000 299.484 C 24.443 299.600,24.800 300.030,24.800 300.447 C 24.800 300.933,25.083 301.200,25.600 301.200 C 26.267 301.200,26.400 301.467,26.400 302.800 C 26.400 304.133,26.533 304.400,27.200 304.400 C 27.852 304.400,28.000 304.667,28.000 305.837 C 28.000 306.938,28.187 307.324,28.800 307.484 C 29.243 307.600,29.600 308.030,29.600 308.447 C 29.600 308.933,29.883 309.200,30.400 309.200 C 31.052 309.200,31.200 309.467,31.200 310.637 C 31.200 311.738,31.387 312.124,32.000 312.284 C 32.443 312.400,32.800 312.830,32.800 313.247 C 32.800 313.733,33.083 314.000,33.600 314.000 C 34.252 314.000,34.400 314.267,34.400 315.437 C 34.400 316.538,34.587 316.924,35.200 317.084 C 35.643 317.200,36.000 317.630,36.000 318.047 C 36.000 318.533,36.283 318.800,36.800 318.800 C 37.333 318.800,37.600 319.067,37.600 319.600 C 37.600 320.133,37.867 320.400,38.400 320.400 C 39.052 320.400,39.200 320.667,39.200 321.837 C 39.200 322.938,39.387 323.324,40.000 323.484 C 40.440 323.599,40.800 323.959,40.800 324.284 C 40.800 324.609,41.160 324.969,41.600 325.084 C 42.043 325.200,42.400 325.630,42.400 326.047 C 42.400 326.519,42.682 326.800,43.155 326.800 C 43.707 326.800,43.984 327.191,44.182 328.244 C 44.360 329.195,44.718 329.758,45.226 329.891 C 45.652 330.002,46.000 330.432,46.000 330.847 C 46.000 331.333,46.283 331.600,46.800 331.600 C 47.333 331.600,47.600 331.867,47.600 332.400 C 47.600 332.933,47.867 333.200,48.400 333.200 C 48.933 333.200,49.200 333.467,49.200 334.000 C 49.200 334.533,49.467 334.800,50.000 334.800 C 50.533 334.800,50.800 335.067,50.800 335.600 C 50.800 336.133,51.067 336.400,51.600 336.400 C 52.133 336.400,52.400 336.667,52.400 337.200 C 52.400 337.733,52.667 338.000,53.200 338.000 C 53.733 338.000,54.000 338.267,54.000 338.800 C 54.000 339.333,54.267 339.600,54.800 339.600 C 55.333 339.600,55.600 339.867,55.600 340.400 C 55.600 340.933,55.867 341.200,56.400 341.200 C 56.933 341.200,57.200 341.467,57.200 342.000 C 57.200 342.533,57.467 342.800,58.000 342.800 C 58.533 342.800,58.800 343.067,58.800 343.600 C 58.800 344.133,59.067 344.400,59.600 344.400 C 60.133 344.400,60.400 344.667,60.400 345.200 C 60.400 345.733,60.667 346.000,61.200 346.000 C 61.733 346.000,62.000 346.267,62.000 346.800 C 62.000 347.333,62.267 347.600,62.800 347.600 C 63.333 347.600,63.600 347.867,63.600 348.400 C 63.600 348.933,63.867 349.200,64.400 349.200 C 64.933 349.200,65.200 349.467,65.200 350.000 C 65.200 350.533,65.467 350.800,66.000 350.800 C 66.533 350.800,66.800 351.067,66.800 351.600 C 66.800 352.133,67.067 352.400,67.600 352.400 C 68.133 352.400,68.400 352.667,68.400 353.200 C 68.400 353.717,68.667 354.000,69.153 354.000 C 69.568 354.000,69.998 354.348,70.109 354.774 C 70.242 355.282,70.805 355.640,71.756 355.818 C 72.809 356.016,73.200 356.293,73.200 356.845 C 73.200 357.333,73.482 357.600,74.000 357.600 C 74.465 357.600,74.800 357.867,74.800 358.237 C 74.800 358.588,75.143 358.965,75.563 359.074 C 75.983 359.184,76.416 359.617,76.526 360.037 C 76.675 360.609,77.085 360.800,78.163 360.800 C 79.333 360.800,79.600 360.948,79.600 361.600 C 79.600 362.133,79.867 362.400,80.400 362.400 C 80.933 362.400,81.200 362.667,81.200 363.200 C 81.200 363.717,81.467 364.000,81.953 364.000 C 82.370 364.000,82.800 364.357,82.916 364.800 C 83.076 365.413,83.462 365.600,84.563 365.600 C 85.733 365.600,86.000 365.748,86.000 366.400 C 86.000 366.917,86.267 367.200,86.753 367.200 C 87.170 367.200,87.600 367.557,87.716 368.000 C 87.876 368.613,88.262 368.800,89.363 368.800 C 90.533 368.800,90.800 368.948,90.800 369.600 C 90.800 370.117,91.067 370.400,91.553 370.400 C 91.970 370.400,92.400 370.757,92.516 371.200 C 92.676 371.813,93.062 372.000,94.163 372.000 C 95.333 372.000,95.600 372.148,95.600 372.800 C 95.600 373.467,95.867 373.600,97.200 373.600 C 98.533 373.600,98.800 373.733,98.800 374.400 C 98.800 374.917,99.067 375.200,99.553 375.200 C 99.970 375.200,100.400 375.557,100.516 376.000 C 100.675 376.606,101.062 376.800,102.116 376.800 C 103.170 376.800,103.557 376.994,103.716 377.600 C 103.875 378.206,104.262 378.400,105.316 378.400 C 106.370 378.400,106.757 378.594,106.916 379.200 C 107.075 379.806,107.462 380.000,108.516 380.000 C 109.570 380.000,109.957 380.194,110.116 380.800 C 110.275 381.406,110.662 381.600,111.716 381.600 C 112.770 381.600,113.157 381.794,113.316 382.400 C 113.475 383.006,113.862 383.200,114.916 383.200 C 115.970 383.200,116.357 383.394,116.516 384.000 C 116.694 384.680,117.062 384.800,118.963 384.800 C 120.933 384.800,121.200 384.895,121.200 385.600 C 121.200 386.263,121.467 386.400,122.753 386.400 C 123.970 386.400,124.352 386.573,124.516 387.200 C 124.693 387.877,125.062 388.000,126.916 388.000 C 128.770 388.000,129.139 388.123,129.316 388.800 C 129.475 389.409,129.862 389.600,130.936 389.600 C 131.995 389.600,132.409 389.799,132.600 390.400 C 132.814 391.073,133.205 391.200,135.064 391.200 C 136.938 391.200,137.307 391.322,137.484 392.000 C 137.669 392.708,138.030 392.800,140.620 392.800 C 143.195 392.800,143.577 392.896,143.800 393.600 C 144.016 394.282,144.405 394.400,146.427 394.400 C 148.533 394.400,148.800 394.490,148.800 395.200 C 148.800 395.932,149.067 396.000,151.953 396.000 C 154.770 396.000,155.129 396.085,155.316 396.800 C 155.507 397.529,155.862 397.600,159.316 397.600 C 162.770 397.600,163.125 397.671,163.316 398.400 C 163.512 399.151,163.862 399.200,168.963 399.200 C 172.321 399.200,174.400 399.353,174.400 399.600 C 174.400 399.863,183.200 400.000,200.000 400.000 C 216.800 400.000,225.600 399.863,225.600 399.600 C 225.600 399.353,227.679 399.200,231.037 399.200 C 236.138 399.200,236.488 399.151,236.684 398.400 C 236.875 397.671,237.230 397.600,240.684 397.600 C 244.138 397.600,244.493 397.529,244.684 396.800 C 244.871 396.085,245.230 396.000,248.047 396.000 C 250.933 396.000,251.200 395.932,251.200 395.200 C 251.200 394.490,251.467 394.400,253.573 394.400 C 255.595 394.400,255.984 394.282,256.200 393.600 C 256.423 392.896,256.805 392.800,259.380 392.800 C 261.970 392.800,262.331 392.708,262.516 392.000 C 262.693 391.322,263.062 391.200,264.936 391.200 C 266.795 391.200,267.186 391.073,267.400 390.400 C 267.591 389.799,268.005 389.600,269.064 389.600 C 270.138 389.600,270.525 389.409,270.684 388.800 C 270.861 388.123,271.230 388.000,273.084 388.000 C 274.938 388.000,275.307 387.877,275.484 387.200 C 275.648 386.573,276.030 386.400,277.247 386.400 C 278.533 386.400,278.800 386.263,278.800 385.600 C 278.800 384.895,279.067 384.800,281.037 384.800 C 282.938 384.800,283.306 384.680,283.484 384.000 C 283.643 383.394,284.030 383.200,285.084 383.200 C 286.138 383.200,286.525 383.006,286.684 382.400 C 286.843 381.794,287.230 381.600,288.284 381.600 C 289.338 381.600,289.725 381.406,289.884 380.800 C 290.043 380.194,290.430 380.000,291.484 380.000 C 292.538 380.000,292.925 379.806,293.084 379.200 C 293.243 378.594,293.630 378.400,294.684 378.400 C 295.738 378.400,296.125 378.206,296.284 377.600 C 296.443 376.994,296.830 376.800,297.884 376.800 C 298.938 376.800,299.325 376.606,299.484 376.000 C 299.600 375.557,300.030 375.200,300.447 375.200 C 300.933 375.200,301.200 374.917,301.200 374.400 C 301.200 373.733,301.467 373.600,302.800 373.600 C 304.133 373.600,304.400 373.467,304.400 372.800 C 304.400 372.148,304.667 372.000,305.837 372.000 C 306.938 372.000,307.324 371.813,307.484 371.200 C 307.600 370.757,308.030 370.400,308.447 370.400 C 308.933 370.400,309.200 370.117,309.200 369.600 C 309.200 368.948,309.467 368.800,310.637 368.800 C 311.738 368.800,312.124 368.613,312.284 368.000 C 312.400 367.557,312.830 367.200,313.247 367.200 C 313.733 367.200,314.000 366.917,314.000 366.400 C 314.000 365.748,314.267 365.600,315.437 365.600 C 316.538 365.600,316.924 365.413,317.084 364.800 C 317.200 364.357,317.630 364.000,318.047 364.000 C 318.533 364.000,318.800 363.717,318.800 363.200 C 318.800 362.667,319.067 362.400,319.600 362.400 C 320.133 362.400,320.400 362.133,320.400 361.600 C 320.400 360.948,320.667 360.800,321.837 360.800 C 322.915 360.800,323.325 360.609,323.474 360.037 C 323.584 359.617,324.017 359.184,324.437 359.074 C 324.857 358.965,325.200 358.588,325.200 358.237 C 325.200 357.867,325.535 357.600,326.000 357.600 C 326.518 357.600,326.800 357.333,326.800 356.845 C 326.800 356.293,327.191 356.016,328.244 355.818 C 329.195 355.640,329.758 355.282,329.891 354.774 C 330.002 354.348,330.432 354.000,330.847 354.000 C 331.333 354.000,331.600 353.717,331.600 353.200 C 331.600 352.667,331.867 352.400,332.400 352.400 C 332.933 352.400,333.200 352.133,333.200 351.600 C 333.200 351.067,333.467 350.800,334.000 350.800 C 334.533 350.800,334.800 350.533,334.800 350.000 C 334.800 349.467,335.067 349.200,335.600 349.200 C 336.133 349.200,336.400 348.933,336.400 348.400 C 336.400 347.867,336.667 347.600,337.200 347.600 C 337.733 347.600,338.000 347.333,338.000 346.800 C 338.000 346.267,338.267 346.000,338.800 346.000 C 339.333 346.000,339.600 345.733,339.600 345.200 C 339.600 344.667,339.867 344.400,340.400 344.400 C 340.933 344.400,341.200 344.133,341.200 343.600 C 341.200 343.067,341.467 342.800,342.000 342.800 C 342.533 342.800,342.800 342.533,342.800 342.000 C 342.800 341.467,343.067 341.200,343.600 341.200 C 344.133 341.200,344.400 340.933,344.400 340.400 C 344.400 339.867,344.667 339.600,345.200 339.600 C 345.733 339.600,346.000 339.333,346.000 338.800 C 346.000 338.267,346.267 338.000,346.800 338.000 C 347.333 338.000,347.600 337.733,347.600 337.200 C 347.600 336.667,347.867 336.400,348.400 336.400 C 348.933 336.400,349.200 336.133,349.200 335.600 C 349.200 335.067,349.467 334.800,350.000 334.800 C 350.533 334.800,350.800 334.533,350.800 334.000 C 350.800 333.467,351.067 333.200,351.600 333.200 C 352.133 333.200,352.400 332.933,352.400 332.400 C 352.400 331.867,352.667 331.600,353.200 331.600 C 353.717 331.600,354.000 331.333,354.000 330.847 C 354.000 330.432,354.348 330.002,354.774 329.891 C 355.282 329.758,355.640 329.195,355.818 328.244 C 356.016 327.191,356.293 326.800,356.845 326.800 C 357.318 326.800,357.600 326.519,357.600 326.047 C 357.600 325.630,357.957 325.200,358.400 325.084 C 358.840 324.969,359.200 324.609,359.200 324.284 C 359.200 323.959,359.560 323.599,360.000 323.484 C 360.613 323.324,360.800 322.938,360.800 321.837 C 360.800 320.667,360.948 320.400,361.600 320.400 C 362.133 320.400,362.400 320.133,362.400 319.600 C 362.400 319.067,362.667 318.800,363.200 318.800 C 363.717 318.800,364.000 318.533,364.000 318.047 C 364.000 317.630,364.357 317.200,364.800 317.084 C 365.413 316.924,365.600 316.538,365.600 315.437 C 365.600 314.267,365.748 314.000,366.400 314.000 C 366.917 314.000,367.200 313.733,367.200 313.247 C 367.200 312.830,367.557 312.400,368.000 312.284 C 368.613 312.124,368.800 311.738,368.800 310.637 C 368.800 309.467,368.948 309.200,369.600 309.200 C 370.117 309.200,370.400 308.933,370.400 308.447 C 370.400 308.030,370.757 307.600,371.200 307.484 C 371.813 307.324,372.000 306.938,372.000 305.837 C 372.000 304.667,372.148 304.400,372.800 304.400 C 373.467 304.400,373.600 304.133,373.600 302.800 C 373.600 301.467,373.733 301.200,374.400 301.200 C 374.917 301.200,375.200 300.933,375.200 300.447 C 375.200 300.030,375.557 299.600,376.000 299.484 C 376.606 299.325,376.800 298.938,376.800 297.884 C 376.800 296.830,376.994 296.443,377.600 296.284 C 378.206 296.125,378.400 295.738,378.400 294.684 C 378.400 293.630,378.594 293.243,379.200 293.084 C 379.806 292.925,380.000 292.538,380.000 291.484 C 380.000 290.430,380.194 290.043,380.800 289.884 C 381.406 289.725,381.600 289.338,381.600 288.284 C 381.600 287.230,381.794 286.843,382.400 286.684 C 383.006 286.525,383.200 286.138,383.200 285.084 C 383.200 284.030,383.394 283.643,384.000 283.484 C 384.680 283.306,384.800 282.938,384.800 281.037 C 384.800 279.067,384.895 278.800,385.600 278.800 C 386.263 278.800,386.400 278.533,386.400 277.247 C 386.400 276.030,386.573 275.648,387.200 275.484 C 387.877 275.307,388.000 274.938,388.000 273.084 C 388.000 271.230,388.123 270.861,388.800 270.684 C 389.409 270.525,389.600 270.138,389.600 269.064 C 389.600 268.005,389.799 267.591,390.400 267.400 C 391.073 267.186,391.200 266.795,391.200 264.936 C 391.200 263.062,391.322 262.693,392.000 262.516 C 392.708 262.331,392.800 261.970,392.800 259.380 C 392.800 256.805,392.896 256.423,393.600 256.200 C 394.282 255.984,394.400 255.595,394.400 253.573 C 394.400 251.467,394.490 251.200,395.200 251.200 C 395.932 251.200,396.000 250.933,396.000 248.047 C 396.000 245.230,396.085 244.871,396.800 244.684 C 397.529 244.493,397.600 244.138,397.600 240.684 C 397.600 237.230,397.671 236.875,398.400 236.684 C 399.151 236.488,399.200 236.138,399.200 231.037 C 399.200 227.679,399.353 225.600,399.600 225.600 C 399.863 225.600,400.000 216.800,400.000 200.000 C 400.000 183.200,399.863 174.400,399.600 174.400 C 399.353 174.400,399.200 172.321,399.200 168.963 C 399.200 163.862,399.151 163.512,398.400 163.316 C 397.671 163.125,397.600 162.770,397.600 159.316 C 397.600 155.862,397.529 155.507,396.800 155.316 C 396.085 155.129,396.000 154.770,396.000 151.953 C 396.000 149.067,395.932 148.800,395.200 148.800 C 394.490 148.800,394.400 148.533,394.400 146.427 C 394.400 144.405,394.282 144.016,393.600 143.800 C 392.896 143.577,392.800 143.195,392.800 140.620 C 392.800 138.030,392.708 137.669,392.000 137.484 C 391.322 137.307,391.200 136.938,391.200 135.064 C 391.200 133.205,391.073 132.814,390.400 132.600 C 389.799 132.409,389.600 131.995,389.600 130.936 C 389.600 129.862,389.409 129.475,388.800 129.316 C 388.123 129.139,388.000 128.770,388.000 126.916 C 388.000 125.062,387.877 124.693,387.200 124.516 C 386.573 124.352,386.400 123.970,386.400 122.753 C 386.400 121.467,386.263 121.200,385.600 121.200 C 384.895 121.200,384.800 120.933,384.800 118.963 C 384.800 117.062,384.680 116.694,384.000 116.516 C 383.394 116.357,383.200 115.970,383.200 114.916 C 383.200 113.862,383.006 113.475,382.400 113.316 C 381.794 113.157,381.600 112.770,381.600 111.716 C 381.600 110.662,381.406 110.275,380.800 110.116 C 380.194 109.957,380.000 109.570,380.000 108.516 C 380.000 107.462,379.806 107.075,379.200 106.916 C 378.594 106.757,378.400 106.370,378.400 105.316 C 378.400 104.262,378.206 103.875,377.600 103.716 C 376.994 103.557,376.800 103.170,376.800 102.116 C 376.800 101.062,376.606 100.675,376.000 100.516 C 375.557 100.400,375.200 99.970,375.200 99.553 C 375.200 99.067,374.917 98.800,374.400 98.800 C 373.733 98.800,373.600 98.533,373.600 97.200 C 373.600 95.867,373.467 95.600,372.800 95.600 C 372.148 95.600,372.000 95.333,372.000 94.163 C 372.000 93.062,371.813 92.676,371.200 92.516 C 370.757 92.400,370.400 91.970,370.400 91.553 C 370.400 91.067,370.117 90.800,369.600 90.800 C 368.948 90.800,368.800 90.533,368.800 89.363 C 368.800 88.262,368.613 87.876,368.000 87.716 C 367.557 87.600,367.200 87.170,367.200 86.753 C 367.200 86.267,366.917 86.000,366.400 86.000 C 365.748 86.000,365.600 85.733,365.600 84.563 C 365.600 83.462,365.413 83.076,364.800 82.916 C 364.357 82.800,364.000 82.370,364.000 81.953 C 364.000 81.467,363.717 81.200,363.200 81.200 C 362.667 81.200,362.400 80.933,362.400 80.400 C 362.400 79.867,362.133 79.600,361.600 79.600 C 360.948 79.600,360.800 79.333,360.800 78.163 C 360.800 77.085,360.609 76.675,360.037 76.526 C 359.617 76.416,359.184 75.983,359.074 75.563 C 358.965 75.143,358.588 74.800,358.237 74.800 C 357.867 74.800,357.600 74.465,357.600 74.000 C 357.600 73.482,357.333 73.200,356.845 73.200 C 356.293 73.200,356.016 72.809,355.818 71.756 C 355.640 70.805,355.282 70.242,354.774 70.109 C 354.348 69.998,354.000 69.568,354.000 69.153 C 354.000 68.667,353.717 68.400,353.200 68.400 C 352.667 68.400,352.400 68.133,352.400 67.600 C 352.400 67.067,352.133 66.800,351.600 66.800 C 351.067 66.800,350.800 66.533,350.800 66.000 C 350.800 65.467,350.533 65.200,350.000 65.200 C 349.467 65.200,349.200 64.933,349.200 64.400 C 349.200 63.867,348.933 63.600,348.400 63.600 C 347.867 63.600,347.600 63.333,347.600 62.800 C 347.600 62.267,347.333 62.000,346.800 62.000 C 346.267 62.000,346.000 61.733,346.000 61.200 C 346.000 60.667,345.733 60.400,345.200 60.400 C 344.667 60.400,344.400 60.133,344.400 59.600 C 344.400 59.067,344.133 58.800,343.600 58.800 C 343.067 58.800,342.800 58.533,342.800 58.000 C 342.800 57.467,342.533 57.200,342.000 57.200 C 341.467 57.200,341.200 56.933,341.200 56.400 C 341.200 55.867,340.933 55.600,340.400 55.600 C 339.867 55.600,339.600 55.333,339.600 54.800 C 339.600 54.267,339.333 54.000,338.800 54.000 C 338.267 54.000,338.000 53.733,338.000 53.200 C 338.000 52.667,337.733 52.400,337.200 52.400 C 336.667 52.400,336.400 52.133,336.400 51.600 C 336.400 51.067,336.133 50.800,335.600 50.800 C 335.067 50.800,334.800 50.533,334.800 50.000 C 334.800 49.467,334.533 49.200,334.000 49.200 C 333.467 49.200,333.200 48.933,333.200 48.400 C 333.200 47.867,332.933 47.600,332.400 47.600 C 331.867 47.600,331.600 47.333,331.600 46.800 C 331.600 46.283,331.333 46.000,330.847 46.000 C 330.432 46.000,330.002 45.652,329.891 45.226 C 329.758 44.718,329.195 44.360,328.244 44.182 C 327.191 43.984,326.800 43.707,326.800 43.155 C 326.800 42.682,326.519 42.400,326.047 42.400 C 325.630 42.400,325.200 42.043,325.084 41.600 C 324.969 41.160,324.609 40.800,324.284 40.800 C 323.959 40.800,323.599 40.440,323.484 40.000 C 323.324 39.387,322.938 39.200,321.837 39.200 C 320.667 39.200,320.400 39.052,320.400 38.400 C 320.400 37.867,320.133 37.600,319.600 37.600 C 319.067 37.600,318.800 37.333,318.800 36.800 C 318.800 36.283,318.533 36.000,318.047 36.000 C 317.630 36.000,317.200 35.643,317.084 35.200 C 316.924 34.587,316.538 34.400,315.437 34.400 C 314.267 34.400,314.000 34.252,314.000 33.600 C 314.000 33.083,313.733 32.800,313.247 32.800 C 312.830 32.800,312.400 32.443,312.284 32.000 C 312.124 31.387,311.738 31.200,310.637 31.200 C 309.467 31.200,309.200 31.052,309.200 30.400 C 309.200 29.883,308.933 29.600,308.447 29.600 C 308.030 29.600,307.600 29.243,307.484 28.800 C 307.324 28.187,306.938 28.000,305.837 28.000 C 304.667 28.000,304.400 27.852,304.400 27.200 C 304.400 26.533,304.133 26.400,302.800 26.400 C 301.467 26.400,301.200 26.267,301.200 25.600 C 301.200 25.083,300.933 24.800,300.447 24.800 C 300.030 24.800,299.600 24.443,299.484 24.000 C 299.325 23.394,298.938 23.200,297.884 23.200 C 296.830 23.200,296.443 23.006,296.284 22.400 C 296.125 21.794,295.738 21.600,294.684 21.600 C 293.630 21.600,293.243 21.406,293.084 20.800 C 292.925 20.194,292.538 20.000,291.484 20.000 C 290.430 20.000,290.043 19.806,289.884 19.200 C 289.725 18.594,289.338 18.400,288.284 18.400 C 287.230 18.400,286.843 18.206,286.684 17.600 C 286.525 16.994,286.138 16.800,285.084 16.800 C 284.030 16.800,283.643 16.606,283.484 16.000 C 283.306 15.320,282.938 15.200,281.037 15.200 C 279.067 15.200,278.800 15.105,278.800 14.400 C 278.800 13.737,278.533 13.600,277.247 13.600 C 276.030 13.600,275.648 13.427,275.484 12.800 C 275.307 12.123,274.938 12.000,273.084 12.000 C 271.230 12.000,270.861 11.877,270.684 11.200 C 270.525 10.591,270.138 10.400,269.064 10.400 C 268.005 10.400,267.591 10.201,267.400 9.600 C 267.186 8.927,266.795 8.800,264.936 8.800 C 263.062 8.800,262.693 8.678,262.516 8.000 C 262.331 7.292,261.970 7.200,259.380 7.200 C 256.805 7.200,256.423 7.104,256.200 6.400 C 255.984 5.718,255.595 5.600,253.573 5.600 C 251.467 5.600,251.200 5.510,251.200 4.800 C 251.200 4.068,250.933 4.000,248.047 4.000 C 245.230 4.000,244.871 3.915,244.684 3.200 C 244.493 2.471,244.138 2.400,240.684 2.400 C 237.230 2.400,236.875 2.329,236.684 1.600 C 236.488 0.849,236.138 0.800,231.037 0.800 C 227.679 0.800,225.600 0.647,225.600 0.400 C 225.600 0.138,216.800 0.000,200.000 0.000 C 183.200 0.000,174.400 0.138,174.400 0.400 M169.000 116.214 C 170.100 116.515,171.990 116.937,173.200 117.151 C 175.744 117.603,178.696 118.537,181.044 119.633 C 181.948 120.055,182.961 120.400,183.295 120.400 C 183.629 120.400,184.111 120.652,184.367 120.961 C 184.623 121.269,185.306 121.640,185.885 121.786 C 186.463 121.931,187.380 122.398,187.922 122.825 C 188.464 123.251,189.058 123.600,189.241 123.600 C 190.077 123.600,197.303 128.941,199.791 131.399 C 202.216 133.793,205.105 137.346,206.936 140.187 C 209.853 144.712,209.956 144.884,210.401 146.000 C 210.621 146.550,210.989 147.327,211.220 147.727 C 213.415 151.525,213.187 151.608,200.671 151.560 C 188.085 151.512,188.931 151.728,186.396 147.915 C 183.330 143.303,179.048 139.633,174.091 137.368 C 169.975 135.488,169.422 135.286,167.600 135.000 C 166.610 134.844,164.817 134.465,163.616 134.158 C 160.760 133.428,153.321 133.440,150.226 134.179 C 148.892 134.498,146.768 134.960,145.507 135.206 C 144.246 135.452,143.110 135.822,142.983 136.027 C 142.857 136.232,142.467 136.400,142.118 136.400 C 141.526 136.400,136.783 138.608,135.009 139.709 C 129.645 143.038,123.923 149.490,121.415 155.036 C 120.827 156.336,120.104 157.850,119.810 158.400 C 119.515 158.950,119.143 160.120,118.983 161.000 C 118.824 161.880,118.466 163.050,118.189 163.600 C 116.677 166.600,116.661 185.377,118.168 188.987 C 118.447 189.654,118.809 190.920,118.974 191.800 C 119.139 192.680,119.510 193.850,119.799 194.400 C 120.088 194.950,120.836 196.480,121.462 197.800 C 122.087 199.120,123.007 200.830,123.507 201.600 C 124.006 202.370,124.636 203.359,124.907 203.798 C 125.754 205.170,132.140 211.455,133.400 212.156 C 134.060 212.524,135.140 213.176,135.800 213.606 C 137.123 214.468,138.673 215.200,139.177 215.200 C 139.356 215.200,139.716 215.458,139.977 215.772 C 140.238 216.087,141.373 216.542,142.499 216.784 C 143.624 217.025,144.770 217.409,145.045 217.638 C 146.728 219.034,163.327 219.401,166.677 218.115 C 167.095 217.955,167.200 214.795,167.200 202.357 L 167.200 186.800 159.574 186.800 C 149.512 186.800,150.400 187.587,150.400 178.666 C 150.400 169.588,149.570 170.400,158.849 170.400 L 166.339 170.400 167.645 169.300 L 168.951 168.200 177.576 168.072 C 186.691 167.937,188.859 168.215,189.608 169.614 C 190.012 170.370,190.513 170.400,202.586 170.400 C 213.651 170.400,215.220 170.477,215.794 171.051 C 217.272 172.530,216.134 190.568,214.257 195.400 C 213.915 196.280,213.627 197.258,213.618 197.574 C 213.608 197.889,213.240 198.924,212.800 199.874 C 212.360 200.823,211.613 202.455,211.141 203.500 C 210.668 204.545,209.678 206.414,208.941 207.652 C 207.379 210.276,207.323 210.740,208.400 212.109 C 208.840 212.669,209.200 213.479,209.200 213.909 C 209.200 214.340,209.537 215.121,209.948 215.646 C 210.359 216.171,210.821 217.173,210.974 217.872 C 211.126 218.572,211.491 219.344,211.784 219.587 C 212.077 219.830,212.430 220.634,212.569 221.374 C 212.708 222.114,213.086 222.940,213.411 223.209 C 213.735 223.478,214.000 224.098,214.000 224.588 C 214.000 225.077,214.360 225.893,214.800 226.400 C 215.240 226.907,215.600 227.723,215.600 228.212 C 215.600 228.702,215.869 229.325,216.197 229.598 C 216.526 229.870,216.992 230.837,217.234 231.747 C 217.476 232.656,217.908 233.670,218.193 234.000 C 218.478 234.330,218.835 235.185,218.987 235.900 C 219.139 236.615,219.422 237.200,219.616 237.200 C 219.810 237.200,220.170 237.947,220.416 238.860 C 220.662 239.773,221.119 240.776,221.432 241.089 C 221.744 241.401,222.000 241.924,222.000 242.249 C 222.000 242.575,222.344 243.507,222.765 244.321 C 224.453 247.583,225.600 250.248,225.600 250.906 C 225.600 251.288,225.773 251.600,225.984 251.600 C 226.195 251.600,226.586 252.328,226.853 253.218 L 227.337 254.836 227.829 253.666 C 228.100 253.022,228.519 252.374,228.760 252.224 C 229.002 252.075,229.200 251.538,229.200 251.030 C 229.200 250.523,229.560 249.650,230.000 249.091 C 230.440 248.531,230.800 247.721,230.800 247.291 C 230.800 246.860,231.160 246.050,231.600 245.491 C 232.040 244.931,232.400 244.121,232.400 243.691 C 232.400 243.260,232.737 242.479,233.148 241.954 C 233.559 241.429,234.021 240.427,234.174 239.728 C 234.326 239.028,234.691 238.256,234.984 238.013 C 235.277 237.770,235.630 236.966,235.769 236.226 C 235.908 235.486,236.268 234.676,236.569 234.426 C 236.870 234.176,237.235 233.338,237.380 232.565 C 237.525 231.791,237.883 231.066,238.175 230.954 C 238.467 230.842,238.815 230.065,238.949 229.227 C 239.083 228.389,239.446 227.494,239.755 227.238 C 240.064 226.981,240.430 226.166,240.569 225.426 C 240.708 224.686,241.068 223.876,241.369 223.626 C 241.670 223.376,242.030 222.566,242.169 221.826 C 242.308 221.086,242.668 220.276,242.969 220.026 C 243.270 219.776,243.635 218.938,243.780 218.165 C 243.925 217.391,244.283 216.666,244.575 216.554 C 244.867 216.442,245.215 215.665,245.349 214.827 C 245.483 213.989,245.846 213.094,246.155 212.838 C 246.464 212.581,246.830 211.766,246.969 211.026 C 247.108 210.286,247.468 209.476,247.769 209.226 C 248.070 208.976,248.430 208.166,248.569 207.426 C 248.708 206.686,249.068 205.876,249.369 205.626 C 249.670 205.376,250.035 204.538,250.180 203.765 C 250.325 202.991,250.683 202.266,250.975 202.154 C 251.267 202.042,251.620 201.235,251.760 200.360 C 251.900 199.485,252.268 198.672,252.577 198.553 C 252.887 198.435,253.258 197.642,253.401 196.792 C 253.545 195.942,253.914 195.038,254.221 194.783 C 254.528 194.528,254.892 193.714,255.031 192.974 C 255.170 192.234,255.530 191.424,255.831 191.174 C 256.132 190.924,256.496 190.093,256.640 189.328 C 256.784 188.562,257.127 187.849,257.403 187.743 C 257.680 187.637,258.020 186.835,258.160 185.960 C 258.300 185.085,258.668 184.272,258.977 184.153 C 259.287 184.035,259.658 183.242,259.801 182.392 C 259.945 181.542,260.314 180.638,260.621 180.383 C 260.928 180.128,261.292 179.314,261.431 178.574 C 261.570 177.834,261.930 177.024,262.231 176.774 C 262.532 176.524,262.896 175.693,263.040 174.928 C 263.184 174.162,263.531 173.448,263.811 173.340 C 264.092 173.233,264.445 172.487,264.596 171.683 C 265.209 168.411,265.791 168.216,275.345 168.075 C 284.375 167.943,286.022 168.080,286.987 169.044 C 288.061 170.118,287.903 280.610,286.826 281.186 C 285.678 281.801,268.301 281.741,267.680 281.120 C 267.314 280.754,267.200 272.624,267.200 246.970 C 267.200 228.451,267.088 212.737,266.950 212.050 C 266.658 210.588,265.600 210.350,265.600 211.746 C 265.600 212.266,265.240 213.150,264.800 213.709 C 264.360 214.269,264.000 215.079,264.000 215.509 C 264.000 215.940,263.640 216.750,263.200 217.309 C 262.760 217.869,262.400 218.679,262.400 219.109 C 262.400 219.540,262.040 220.350,261.600 220.909 C 261.160 221.469,260.800 222.279,260.800 222.709 C 260.800 223.140,260.440 223.950,260.000 224.509 C 259.560 225.069,259.200 225.879,259.200 226.309 C 259.200 226.740,258.863 227.521,258.452 228.046 C 258.041 228.571,257.579 229.573,257.426 230.272 C 257.274 230.972,256.909 231.744,256.616 231.987 C 256.323 232.230,255.970 233.034,255.831 233.774 C 255.692 234.514,255.332 235.324,255.031 235.574 C 254.730 235.824,254.370 236.634,254.231 237.374 C 254.092 238.114,253.732 238.924,253.431 239.174 C 253.130 239.424,252.770 240.234,252.631 240.974 C 252.492 241.714,252.132 242.524,251.831 242.774 C 251.530 243.024,251.170 243.834,251.031 244.574 C 250.892 245.314,250.532 246.124,250.231 246.374 C 249.930 246.624,249.570 247.434,249.431 248.174 C 249.292 248.914,248.932 249.724,248.631 249.974 C 248.330 250.224,247.970 251.034,247.831 251.774 C 247.692 252.514,247.332 253.324,247.031 253.574 C 246.730 253.824,246.370 254.634,246.231 255.374 C 246.092 256.114,245.732 256.924,245.431 257.174 C 245.130 257.424,244.770 258.234,244.631 258.974 C 244.492 259.714,244.132 260.524,243.831 260.774 C 243.530 261.024,243.170 261.834,243.031 262.574 C 242.892 263.314,242.532 264.124,242.231 264.374 C 241.930 264.624,241.570 265.434,241.431 266.174 C 241.292 266.914,240.932 267.724,240.631 267.974 C 240.330 268.224,239.970 269.034,239.831 269.774 C 239.692 270.514,239.332 271.324,239.031 271.574 C 238.730 271.824,238.370 272.634,238.231 273.374 C 238.092 274.114,237.718 274.936,237.400 275.200 C 237.082 275.464,236.706 276.294,236.565 277.045 C 236.424 277.795,236.147 278.509,235.949 278.632 C 235.750 278.754,235.328 279.477,235.010 280.237 L 234.433 281.619 227.360 281.509 C 221.535 281.419,220.238 281.294,220.011 280.800 C 219.860 280.470,219.346 279.444,218.868 278.521 C 218.391 277.597,218.000 276.467,218.000 276.008 C 218.000 275.550,217.741 275.076,217.424 274.954 C 217.108 274.833,216.724 274.163,216.572 273.467 C 216.420 272.770,215.959 271.771,215.548 271.246 C 215.137 270.721,214.796 269.911,214.791 269.446 C 214.786 268.981,214.430 268.150,214.000 267.600 C 213.570 267.050,213.214 266.219,213.209 265.754 C 213.204 265.289,212.840 264.450,212.400 263.891 C 211.960 263.331,211.600 262.525,211.600 262.098 C 211.600 261.671,211.240 260.907,210.800 260.400 C 210.360 259.893,210.000 259.129,210.000 258.702 C 210.000 258.275,209.640 257.469,209.200 256.909 C 208.760 256.350,208.400 255.488,208.400 254.995 C 208.400 254.502,208.131 253.875,207.803 253.602 C 207.474 253.330,207.010 252.381,206.771 251.493 C 206.532 250.606,206.081 249.624,205.768 249.311 C 205.456 248.999,205.200 248.379,205.200 247.935 C 205.200 247.490,204.840 246.669,204.400 246.109 C 203.960 245.550,203.600 244.740,203.600 244.309 C 203.600 243.879,203.240 243.069,202.800 242.509 C 202.360 241.950,202.000 241.237,202.000 240.925 C 202.000 240.614,201.662 239.693,201.249 238.879 C 200.835 238.066,200.094 236.500,199.600 235.400 C 199.106 234.300,198.365 232.734,197.951 231.921 C 197.538 231.107,197.200 230.094,197.200 229.670 C 197.200 229.245,196.931 228.675,196.603 228.402 C 196.274 228.130,195.822 227.225,195.598 226.392 C 195.096 224.529,194.396 224.609,191.418 226.866 C 190.308 227.708,189.194 228.397,188.943 228.398 C 188.054 228.402,188.000 229.913,188.000 254.901 C 188.000 277.822,187.939 280.204,187.338 280.869 C 186.328 281.984,168.875 281.988,167.866 280.872 C 167.274 280.219,167.196 277.946,167.104 258.572 L 167.000 237.000 165.600 237.099 C 153.081 237.987,140.677 236.619,135.538 233.785 C 134.954 233.463,134.256 233.200,133.987 233.200 C 130.212 233.200,115.963 223.127,110.600 216.667 C 109.720 215.607,108.731 214.452,108.403 214.101 C 108.074 213.750,107.624 213.159,107.403 212.788 C 107.181 212.418,106.467 211.324,105.815 210.357 C 103.277 206.594,99.810 199.551,99.342 197.208 C 99.191 196.453,98.828 195.377,98.536 194.818 C 98.244 194.258,98.004 193.429,98.002 192.975 C 98.001 192.522,97.612 190.722,97.139 188.975 C 96.107 185.169,95.825 168.391,96.743 165.400 C 97.013 164.520,97.484 162.540,97.789 161.000 C 98.362 158.107,99.278 155.088,100.218 153.000 C 101.563 150.010,103.245 146.530,103.697 145.800 C 108.617 137.857,111.674 134.235,118.243 128.564 C 119.367 127.594,120.464 126.800,120.681 126.800 C 120.898 126.800,121.402 126.440,121.800 126.000 C 122.198 125.560,122.683 125.200,122.878 125.200 C 123.073 125.200,123.765 124.840,124.416 124.400 C 125.067 123.960,126.122 123.248,126.760 122.818 C 127.398 122.387,128.380 121.920,128.943 121.778 C 129.507 121.637,130.177 121.269,130.433 120.961 C 130.689 120.652,131.171 120.400,131.505 120.400 C 131.839 120.400,132.852 120.055,133.756 119.633 C 136.138 118.521,139.082 117.596,141.600 117.168 C 142.810 116.962,144.250 116.591,144.800 116.342 C 147.276 115.223,165.033 115.129,169.000 116.214 " stroke="none" fill="#1b1c1c" fill-rule="evenodd"></path><path id="path1" d="M168.869 170.100 C 168.589 170.911,168.564 188.371,168.743 258.508 L 168.800 280.816 177.500 280.708 L 186.200 280.600 186.442 251.000 C 186.576 234.720,186.711 218.025,186.742 213.900 C 186.778 209.205,186.950 206.400,187.200 206.400 C 187.420 206.400,187.600 206.762,187.600 207.204 C 187.600 207.646,187.960 208.316,188.400 208.693 C 188.840 209.070,189.200 209.551,189.200 209.763 C 189.200 209.974,189.580 210.969,190.044 211.974 C 190.508 212.978,191.336 214.790,191.885 216.000 C 194.190 221.088,194.534 221.829,194.858 222.400 C 195.315 223.206,197.507 227.789,198.445 229.900 C 198.860 230.835,199.560 232.410,200.000 233.400 C 200.440 234.390,201.160 236.010,201.600 237.000 C 202.040 237.990,202.760 239.610,203.200 240.600 C 203.640 241.590,204.340 243.165,204.755 244.100 C 205.171 245.035,205.997 246.880,206.591 248.200 C 208.612 252.687,209.199 253.998,210.042 255.900 C 210.504 256.945,211.232 258.561,211.659 259.491 C 212.085 260.421,212.794 261.992,213.234 262.982 C 213.674 263.972,214.394 265.592,214.834 266.582 C 216.046 269.309,217.017 271.451,218.789 275.308 C 219.675 277.237,220.400 278.979,220.400 279.179 C 220.400 280.518,221.654 280.800,227.617 280.800 L 233.577 280.800 234.628 278.500 C 236.354 274.726,237.636 271.903,238.441 270.100 C 238.858 269.165,239.585 267.545,240.055 266.500 C 240.525 265.455,241.245 263.835,241.655 262.900 C 242.065 261.965,242.735 260.435,243.145 259.500 C 243.555 258.565,244.275 256.945,244.745 255.900 C 245.215 254.855,245.960 253.190,246.400 252.200 C 246.840 251.210,247.560 249.590,248.000 248.600 C 248.440 247.610,249.135 246.035,249.545 245.100 C 249.955 244.165,250.700 242.500,251.200 241.400 C 251.700 240.300,252.420 238.680,252.800 237.800 C 253.180 236.920,253.875 235.345,254.345 234.300 C 254.815 233.255,255.585 231.545,256.055 230.500 C 256.525 229.455,257.226 227.880,257.614 227.000 C 258.001 226.120,258.767 224.410,259.315 223.200 C 259.864 221.990,260.692 220.145,261.156 219.100 C 261.620 218.055,262.360 216.390,262.800 215.400 C 263.240 214.410,263.973 212.745,264.428 211.700 C 264.884 210.655,265.421 209.530,265.622 209.200 C 265.823 208.870,266.252 208.015,266.574 207.300 C 267.067 206.204,267.715 205.692,268.093 206.100 C 268.144 206.155,268.279 222.940,268.393 243.400 L 268.600 280.600 277.200 280.600 L 285.800 280.600 285.910 225.800 C 285.970 195.660,285.921 170.592,285.800 170.093 L 285.581 169.185 276.311 169.293 L 267.041 169.400 266.021 171.400 C 265.459 172.500,264.397 174.750,263.660 176.400 C 262.923 178.050,261.978 180.165,261.560 181.100 C 261.142 182.035,260.440 183.610,260.000 184.600 C 259.560 185.590,258.840 187.210,258.400 188.200 C 257.960 189.190,257.240 190.810,256.800 191.800 C 256.360 192.790,255.640 194.410,255.200 195.400 C 254.760 196.390,254.040 198.010,253.600 199.000 C 253.160 199.990,252.440 201.610,252.000 202.600 C 251.560 203.590,250.840 205.210,250.400 206.200 C 249.960 207.190,249.240 208.810,248.800 209.800 C 248.360 210.790,247.620 212.455,247.156 213.500 C 246.692 214.545,245.864 216.390,245.315 217.600 C 244.060 220.370,243.009 222.723,242.055 224.900 C 241.645 225.835,240.925 227.455,240.455 228.500 C 239.367 230.919,238.204 233.536,237.255 235.700 C 236.108 238.315,234.999 240.803,234.000 243.000 C 233.500 244.100,232.774 245.720,232.386 246.600 C 231.999 247.480,231.213 249.193,230.641 250.406 C 230.068 251.619,229.600 252.746,229.600 252.911 C 229.600 253.510,227.788 255.990,227.347 255.995 C 227.098 255.998,226.415 254.965,225.830 253.700 C 225.245 252.435,224.431 250.680,224.021 249.800 C 223.611 248.920,222.797 247.120,222.212 245.800 C 220.464 241.855,220.126 241.100,219.084 238.800 C 218.536 237.590,217.708 235.745,217.244 234.700 C 216.780 233.655,216.040 231.990,215.600 231.000 C 215.160 230.010,214.440 228.390,214.000 227.400 C 213.560 226.410,212.840 224.790,212.400 223.800 C 211.960 222.810,211.240 221.190,210.800 220.200 C 210.360 219.210,209.640 217.590,209.200 216.600 C 208.760 215.610,208.040 214.023,207.600 213.074 C 207.160 212.124,206.800 211.157,206.800 210.923 C 206.800 210.515,205.845 208.245,203.718 203.600 C 203.164 202.390,202.351 200.590,201.911 199.600 C 201.472 198.610,200.664 196.810,200.115 195.600 C 199.567 194.390,198.801 192.680,198.414 191.800 C 197.729 190.245,197.153 188.964,195.085 184.400 C 194.536 183.190,193.708 181.345,193.244 180.300 C 187.729 167.884,189.501 169.200,178.301 169.200 C 169.201 169.200,169.179 169.202,168.869 170.100 " stroke="none" fill="#f9f9f9" fill-rule="evenodd"></path><path id="path2" d="M152.400 116.355 C 150.750 116.490,149.174 116.746,148.899 116.924 C 148.623 117.103,146.773 117.417,144.788 117.622 C 142.803 117.828,140.778 118.247,140.289 118.554 C 139.800 118.862,138.545 119.234,137.500 119.381 C 136.455 119.528,135.600 119.815,135.600 120.019 C 135.600 120.222,134.795 120.591,133.812 120.839 C 132.829 121.086,131.817 121.539,131.563 121.844 C 131.310 122.150,130.854 122.400,130.551 122.400 C 129.830 122.400,126.091 124.404,125.142 125.300 C 124.734 125.685,124.213 126.000,123.984 126.000 C 123.593 126.000,121.238 127.511,120.800 128.043 C 120.171 128.807,115.568 132.400,115.218 132.400 C 114.988 132.400,114.800 132.549,114.800 132.732 C 114.800 132.915,114.075 133.860,113.189 134.832 C 112.304 135.804,111.179 137.118,110.689 137.751 C 110.200 138.383,109.440 139.280,109.000 139.743 C 108.155 140.633,107.858 141.075,106.646 143.248 C 106.231 143.991,105.646 144.744,105.346 144.920 C 105.046 145.096,104.800 145.517,104.800 145.857 C 104.800 146.196,104.440 146.931,104.000 147.491 C 103.560 148.050,103.200 148.819,103.200 149.200 C 103.200 149.581,102.840 150.350,102.400 150.909 C 101.960 151.469,101.600 152.213,101.600 152.565 C 101.600 152.916,101.240 153.875,100.800 154.696 C 100.360 155.516,100.000 156.686,100.000 157.296 C 100.000 157.905,99.640 159.075,99.200 159.896 C 98.702 160.824,98.400 162.152,98.400 163.410 C 98.400 164.522,98.095 166.505,97.722 167.816 C 96.857 170.857,96.723 181.814,97.522 184.072 C 97.809 184.881,98.202 187.085,98.397 188.969 C 98.595 190.885,99.025 192.786,99.375 193.286 C 99.719 193.777,100.000 194.702,100.000 195.342 C 100.000 195.982,100.338 197.067,100.751 197.753 C 101.165 198.439,101.623 199.675,101.769 200.500 C 101.916 201.325,102.201 202.000,102.403 202.000 C 102.604 202.000,102.963 202.720,103.200 203.600 C 103.437 204.480,103.786 205.200,103.976 205.200 C 104.166 205.200,104.519 205.766,104.760 206.458 C 105.002 207.150,105.803 208.455,106.542 209.358 C 107.281 210.261,108.008 211.388,108.158 211.863 C 108.308 212.338,108.694 212.827,109.015 212.950 C 109.337 213.074,109.600 213.363,109.600 213.593 C 109.600 214.218,113.758 218.590,118.254 222.691 C 120.132 224.404,120.860 224.926,122.700 225.877 C 123.415 226.246,124.000 226.692,124.000 226.869 C 124.000 227.045,124.585 227.458,125.300 227.787 C 126.640 228.402,127.414 228.849,129.284 230.084 C 129.880 230.478,130.711 230.800,131.130 230.800 C 131.549 230.800,132.321 231.132,132.846 231.539 C 133.371 231.945,134.497 232.387,135.350 232.522 C 136.202 232.656,137.192 233.019,137.550 233.329 C 137.907 233.639,139.135 233.997,140.278 234.125 C 141.422 234.253,142.952 234.665,143.678 235.042 C 144.819 235.633,146.578 235.743,156.500 235.843 L 168.000 235.960 168.000 227.380 C 168.000 218.076,168.039 218.216,165.800 219.485 C 164.062 220.471,152.008 220.748,149.864 219.852 C 149.057 219.515,147.305 219.116,145.972 218.965 C 144.639 218.814,143.324 218.467,143.051 218.194 C 142.778 217.921,141.948 217.564,141.206 217.401 C 136.880 216.451,124.800 207.487,124.800 205.227 C 124.800 205.014,124.574 204.696,124.299 204.520 C 123.716 204.148,121.600 201.107,121.600 200.642 C 121.600 200.468,121.240 199.869,120.800 199.309 C 120.360 198.750,120.000 197.940,120.000 197.509 C 120.000 197.079,119.640 196.269,119.200 195.709 C 118.760 195.150,118.400 194.266,118.400 193.745 C 118.400 193.223,118.040 192.125,117.600 191.304 C 117.119 190.406,116.800 189.048,116.800 187.893 C 116.800 186.838,116.506 185.305,116.147 184.487 C 115.194 182.316,115.189 170.455,116.140 168.313 C 116.503 167.495,116.800 165.962,116.800 164.907 C 116.800 163.752,117.119 162.394,117.600 161.496 C 118.040 160.675,118.401 159.597,118.403 159.101 C 118.404 158.606,118.763 157.660,119.200 157.000 C 119.637 156.340,119.996 155.498,119.997 155.129 C 119.999 154.759,120.277 154.180,120.617 153.840 C 120.956 153.501,121.423 152.678,121.656 152.012 C 121.888 151.345,122.232 150.800,122.420 150.800 C 122.609 150.800,123.041 150.215,123.380 149.500 C 123.897 148.413,125.089 146.859,127.137 144.600 C 128.578 143.012,131.589 140.581,133.584 139.397 C 133.957 139.176,134.576 138.681,134.960 138.297 C 135.343 137.914,136.004 137.600,136.429 137.600 C 136.853 137.600,137.560 137.240,138.000 136.800 C 138.440 136.360,139.191 136.000,139.669 136.000 C 140.146 136.000,140.844 135.722,141.219 135.383 C 141.594 135.043,142.598 134.670,143.450 134.553 C 144.303 134.436,145.715 134.039,146.588 133.670 C 148.996 132.654,165.610 132.678,167.480 133.700 C 168.184 134.085,169.229 134.400,169.801 134.400 C 170.373 134.400,171.507 134.745,172.321 135.167 C 173.134 135.589,174.250 136.138,174.800 136.388 C 177.246 137.498,178.800 138.437,178.800 138.803 C 178.800 139.021,179.073 139.200,179.406 139.200 C 180.170 139.200,186.800 145.792,186.800 146.551 C 186.800 146.861,187.064 147.216,187.387 147.340 C 187.710 147.464,188.241 148.203,188.567 148.983 L 189.159 150.400 200.180 150.400 C 206.241 150.400,211.200 150.297,211.200 150.171 C 211.200 150.046,210.930 149.673,210.600 149.343 C 210.270 149.013,210.000 148.379,210.000 147.935 C 210.000 147.490,209.640 146.669,209.200 146.109 C 208.760 145.550,208.400 144.816,208.400 144.480 C 208.400 144.143,208.126 143.582,207.790 143.234 C 206.937 142.347,205.200 139.640,205.200 139.196 C 205.200 138.994,204.840 138.635,204.400 138.400 C 203.960 138.165,203.600 137.810,203.600 137.612 C 203.600 136.717,198.051 131.192,194.149 128.200 C 193.575 127.760,192.804 127.122,192.435 126.783 C 192.067 126.443,191.188 125.927,190.483 125.634 C 189.777 125.342,189.200 124.959,189.200 124.782 C 189.200 124.606,188.570 124.254,187.800 124.000 C 187.030 123.746,186.400 123.372,186.400 123.169 C 186.400 122.966,186.157 122.800,185.860 122.800 C 185.562 122.800,184.473 122.350,183.438 121.800 C 182.404 121.250,181.229 120.800,180.828 120.800 C 180.426 120.800,179.881 120.539,179.616 120.220 C 179.351 119.900,178.294 119.517,177.267 119.368 C 176.240 119.218,174.921 118.853,174.336 118.556 C 173.751 118.260,171.771 117.846,169.936 117.637 C 168.101 117.428,166.150 117.089,165.600 116.883 C 164.249 116.378,156.108 116.052,152.400 116.355 M166.814 171.383 C 166.387 171.898,165.087 172.000,158.951 172.000 L 151.600 172.000 151.600 179.000 L 151.600 186.000 159.400 186.000 C 163.690 186.000,167.335 186.000,167.500 186.001 C 167.925 186.002,168.092 171.532,167.672 171.112 C 167.477 170.917,167.102 171.036,166.814 171.383 M190.000 171.860 C 190.000 172.238,190.360 173.324,190.800 174.274 C 191.240 175.223,191.960 176.810,192.400 177.800 C 192.840 178.790,193.560 180.410,194.000 181.400 C 194.440 182.390,195.179 184.055,195.643 185.100 C 196.107 186.145,197.106 188.350,197.863 190.000 C 198.620 191.650,199.583 193.769,200.003 194.709 C 200.422 195.649,201.115 197.179,201.541 198.109 C 201.968 199.039,202.696 200.655,203.158 201.700 C 203.621 202.745,204.351 204.365,204.779 205.300 C 205.208 206.235,205.743 207.495,205.969 208.100 C 206.548 209.649,206.973 209.479,207.974 207.300 C 208.454 206.255,209.131 204.860,209.477 204.200 C 211.078 201.155,211.600 200.003,211.600 199.515 C 211.600 199.225,211.960 198.316,212.400 197.496 C 212.840 196.675,213.206 195.507,213.214 194.901 C 213.221 194.296,213.575 193.080,214.000 192.200 C 214.694 190.762,214.774 189.655,214.786 181.300 L 214.800 172.000 203.174 172.000 C 195.924 172.000,191.256 171.844,190.774 171.586 C 190.148 171.251,190.000 171.304,190.000 171.860 M186.806 217.700 C 186.813 228.692,186.896 229.067,188.952 227.370 C 191.506 225.263,192.586 224.517,193.500 224.229 C 194.628 223.874,194.657 222.807,193.600 220.526 C 193.160 219.577,192.460 218.035,192.045 217.100 C 191.629 216.165,190.819 214.376,190.245 213.125 C 189.670 211.873,189.194 210.703,189.187 210.525 C 189.172 210.139,187.335 208.000,187.019 208.000 C 186.899 208.000,186.803 212.365,186.806 217.700 " stroke="none" fill="#059c64" fill-rule="evenodd"></path><path id="path3" d="M168.986 168.381 C 167.576 168.952,166.978 169.953,167.524 170.827 C 168.127 171.792,168.196 185.832,167.600 186.200 C 167.344 186.358,167.200 192.271,167.200 202.624 C 167.200 213.141,167.340 218.800,167.600 218.800 C 168.157 218.800,168.144 235.885,167.587 236.071 C 166.802 236.333,167.077 280.001,167.868 280.876 C 168.875 281.988,186.331 281.982,187.338 280.869 C 188.301 279.805,188.359 229.102,187.399 228.142 C 186.413 227.156,186.404 227.386,186.300 254.600 L 186.200 280.600 177.500 280.708 L 168.800 280.816 168.743 258.508 C 168.564 188.371,168.589 170.911,168.869 170.100 C 169.179 169.202,169.201 169.200,178.301 169.200 C 188.379 169.200,188.129 169.137,189.468 172.000 C 189.933 172.996,189.935 172.994,189.968 171.674 C 190.012 169.864,189.450 168.966,187.949 168.442 C 186.466 167.925,170.239 167.873,168.986 168.381 M267.200 168.291 C 266.023 168.737,264.865 170.244,264.596 171.683 C 264.445 172.487,264.092 173.233,263.811 173.340 C 263.531 173.448,263.184 174.162,263.040 174.928 C 262.896 175.693,262.532 176.524,262.231 176.774 C 261.930 177.024,261.570 177.834,261.431 178.574 C 261.292 179.314,260.928 180.128,260.621 180.383 C 260.314 180.638,259.945 181.542,259.801 182.392 C 259.658 183.242,259.287 184.035,258.977 184.153 C 258.668 184.272,258.300 185.085,258.160 185.960 C 258.020 186.835,257.680 187.637,257.403 187.743 C 257.127 187.849,256.784 188.562,256.640 189.328 C 256.496 190.093,256.132 190.924,255.831 191.174 C 255.530 191.424,255.170 192.234,255.031 192.974 C 254.892 193.714,254.528 194.528,254.221 194.783 C 253.914 195.038,253.545 195.942,253.401 196.792 C 253.258 197.642,252.887 198.435,252.577 198.553 C 252.268 198.672,251.900 199.485,251.760 200.360 C 251.620 201.235,251.267 202.042,250.975 202.154 C 250.683 202.266,250.325 202.991,250.180 203.765 C 250.035 204.538,249.670 205.376,249.369 205.626 C 249.068 205.876,248.708 206.686,248.569 207.426 C 248.430 208.166,248.070 208.976,247.769 209.226 C 247.468 209.476,247.108 210.286,246.969 211.026 C 246.830 211.766,246.464 212.581,246.155 212.838 C 245.846 213.094,245.483 213.989,245.349 214.827 C 245.215 215.665,244.867 216.442,244.575 216.554 C 244.283 216.666,243.925 217.391,243.780 218.165 C 243.635 218.938,243.270 219.776,242.969 220.026 C 242.668 220.276,242.308 221.086,242.169 221.826 C 242.030 222.566,241.670 223.376,241.369 223.626 C 241.068 223.876,240.708 224.686,240.569 225.426 C 240.430 226.166,240.064 226.981,239.755 227.238 C 239.446 227.494,239.083 228.389,238.949 229.227 C 238.815 230.065,238.467 230.842,238.175 230.954 C 237.883 231.066,237.525 231.791,237.380 232.565 C 237.235 233.338,236.870 234.176,236.569 234.426 C 236.268 234.676,235.908 235.486,235.769 236.226 C 235.630 236.966,235.277 237.770,234.984 238.013 C 234.691 238.256,234.326 239.028,234.174 239.728 C 234.021 240.427,233.559 241.429,233.148 241.954 C 232.737 242.479,232.400 243.260,232.400 243.691 C 232.400 244.121,232.040 244.931,231.600 245.491 C 231.160 246.050,230.800 246.860,230.800 247.291 C 230.800 247.721,230.440 248.531,230.000 249.091 C 229.560 249.650,229.200 250.523,229.200 251.030 C 229.200 251.538,229.002 252.075,228.760 252.224 C 228.519 252.374,228.100 253.022,227.829 253.666 L 227.337 254.836 226.853 253.218 C 226.586 252.328,226.195 251.600,225.984 251.600 C 225.773 251.600,225.600 251.288,225.600 250.906 C 225.600 250.248,224.453 247.583,222.765 244.321 C 222.344 243.507,222.000 242.575,222.000 242.249 C 222.000 241.924,221.744 241.401,221.432 241.089 C 221.119 240.776,220.662 239.773,220.416 238.860 C 220.170 237.947,219.810 237.200,219.616 237.200 C 219.422 237.200,219.139 236.615,218.987 235.900 C 218.835 235.185,218.478 234.330,218.193 234.000 C 217.908 233.670,217.476 232.656,217.234 231.747 C 216.992 230.837,216.526 229.870,216.197 229.598 C 215.869 229.325,215.600 228.702,215.600 228.212 C 215.600 227.723,215.240 226.907,214.800 226.400 C 214.360 225.893,214.000 225.077,214.000 224.588 C 214.000 224.098,213.735 223.478,213.411 223.209 C 213.086 222.940,212.708 222.114,212.569 221.374 C 212.430 220.634,212.077 219.830,211.784 219.587 C 211.491 219.344,211.126 218.572,210.974 217.872 C 210.821 217.173,210.359 216.171,209.948 215.646 C 209.537 215.121,209.200 214.340,209.200 213.909 C 209.200 213.479,208.840 212.669,208.400 212.109 C 207.960 211.550,207.600 210.687,207.600 210.193 C 207.600 209.660,207.304 209.216,206.872 209.103 C 206.119 208.906,206.725 211.616,207.932 213.842 C 208.158 214.259,208.716 215.455,209.171 216.500 C 209.627 217.545,210.360 219.210,210.800 220.200 C 211.240 221.190,211.960 222.810,212.400 223.800 C 212.840 224.790,213.560 226.410,214.000 227.400 C 214.440 228.390,215.160 230.010,215.600 231.000 C 216.040 231.990,216.780 233.655,217.244 234.700 C 217.708 235.745,218.536 237.590,219.084 238.800 C 220.126 241.100,220.464 241.855,222.212 245.800 C 222.797 247.120,223.611 248.920,224.021 249.800 C 224.431 250.680,225.245 252.435,225.830 253.700 C 226.415 254.965,227.098 255.998,227.347 255.995 C 227.788 255.990,229.600 253.510,229.600 252.911 C 229.600 252.746,230.068 251.619,230.641 250.406 C 231.213 249.193,231.999 247.480,232.386 246.600 C 232.774 245.720,233.475 244.145,233.945 243.100 C 234.415 242.055,235.160 240.390,235.600 239.400 C 236.040 238.410,236.760 236.790,237.200 235.800 C 237.640 234.810,238.360 233.190,238.800 232.200 C 239.240 231.210,239.985 229.545,240.455 228.500 C 241.436 226.318,242.599 223.705,243.614 221.400 C 244.001 220.520,244.767 218.810,245.315 217.600 C 245.864 216.390,246.692 214.545,247.156 213.500 C 247.620 212.455,248.360 210.790,248.800 209.800 C 249.240 208.810,249.960 207.190,250.400 206.200 C 250.840 205.210,251.560 203.590,252.000 202.600 C 252.440 201.610,253.160 199.990,253.600 199.000 C 254.040 198.010,254.760 196.390,255.200 195.400 C 255.640 194.410,256.360 192.790,256.800 191.800 C 257.240 190.810,257.960 189.190,258.400 188.200 C 258.840 187.210,259.560 185.590,260.000 184.600 C 260.440 183.610,261.142 182.035,261.560 181.100 C 261.978 180.165,262.923 178.050,263.660 176.400 C 264.397 174.750,265.459 172.500,266.021 171.400 L 267.041 169.400 276.311 169.293 L 285.581 169.185 285.800 170.093 C 285.921 170.592,285.970 195.660,285.910 225.800 L 285.800 280.600 277.200 280.600 L 268.600 280.600 268.393 243.400 C 268.279 222.940,268.144 206.155,268.093 206.100 C 267.715 205.692,267.067 206.204,266.574 207.300 C 266.252 208.015,265.823 208.870,265.622 209.200 C 265.421 209.530,264.884 210.655,264.428 211.700 C 263.973 212.745,263.240 214.410,262.800 215.400 C 262.360 216.390,261.620 218.055,261.156 219.100 C 260.692 220.145,259.864 221.990,259.315 223.200 C 258.299 225.444,257.425 227.394,256.000 230.600 C 255.560 231.590,254.840 233.210,254.400 234.200 C 253.960 235.190,253.240 236.810,252.800 237.800 C 252.360 238.790,251.640 240.410,251.200 241.400 C 250.760 242.390,250.040 244.010,249.600 245.000 C 249.160 245.990,248.415 247.655,247.945 248.700 C 247.475 249.745,246.780 251.320,246.400 252.200 C 246.020 253.080,245.325 254.655,244.855 255.700 C 244.385 256.745,243.615 258.455,243.145 259.500 C 242.675 260.545,241.980 262.120,241.600 263.000 C 240.206 266.230,238.170 270.756,234.628 278.500 L 233.577 280.800 227.617 280.800 C 221.654 280.800,220.400 280.518,220.400 279.179 C 220.400 278.979,219.675 277.237,218.789 275.308 C 217.017 271.451,216.046 269.309,214.834 266.582 C 214.394 265.592,213.674 263.972,213.234 262.982 C 212.794 261.992,212.085 260.421,211.659 259.491 C 211.232 258.561,210.525 256.990,210.086 256.000 C 209.648 255.010,208.803 253.120,208.209 251.800 C 206.295 247.551,205.616 246.037,204.800 244.200 C 206.848 248.808,199.780 232.904,201.600 237.000 C 201.160 236.010,200.440 234.390,200.000 233.400 C 199.560 232.410,198.860 230.835,198.445 229.900 C 196.280 225.028,195.192 222.842,194.816 222.610 C 194.182 222.218,194.337 224.083,195.013 224.976 C 195.336 225.404,195.600 226.054,195.600 226.423 C 195.600 226.791,195.960 227.550,196.400 228.109 C 196.840 228.669,197.200 229.422,197.200 229.784 C 197.200 230.146,197.538 231.107,197.951 231.921 C 198.365 232.734,199.106 234.300,199.600 235.400 C 200.094 236.500,200.835 238.066,201.249 238.879 C 201.662 239.693,202.000 240.614,202.000 240.925 C 202.000 241.237,202.360 241.950,202.800 242.509 C 203.240 243.069,203.600 243.879,203.600 244.309 C 203.600 244.740,203.960 245.550,204.400 246.109 C 204.840 246.669,205.200 247.490,205.200 247.935 C 205.200 248.379,205.456 248.999,205.768 249.311 C 206.081 249.624,206.532 250.606,206.771 251.493 C 207.010 252.381,207.474 253.330,207.803 253.602 C 208.131 253.875,208.400 254.502,208.400 254.995 C 208.400 255.488,208.760 256.350,209.200 256.909 C 209.640 257.469,210.000 258.275,210.000 258.702 C 210.000 259.129,210.360 259.893,210.800 260.400 C 211.240 260.907,211.600 261.671,211.600 262.098 C 211.600 262.525,211.960 263.331,212.400 263.891 C 212.840 264.450,213.204 265.289,213.209 265.754 C 213.214 266.219,213.570 267.050,214.000 267.600 C 214.430 268.150,214.786 268.981,214.791 269.446 C 214.796 269.911,215.137 270.721,215.548 271.246 C 215.959 271.771,216.420 272.770,216.572 273.467 C 216.724 274.163,217.108 274.833,217.424 274.954 C 217.741 275.076,218.000 275.550,218.000 276.008 C 218.000 276.467,218.391 277.597,218.868 278.521 C 219.346 279.444,219.860 280.470,220.011 280.800 C 220.238 281.294,221.535 281.419,227.360 281.509 L 234.433 281.619 235.010 280.237 C 235.328 279.477,235.750 278.754,235.949 278.632 C 236.147 278.509,236.424 277.795,236.565 277.045 C 236.706 276.294,237.082 275.464,237.400 275.200 C 237.718 274.936,238.092 274.114,238.231 273.374 C 238.370 272.634,238.730 271.824,239.031 271.574 C 239.332 271.324,239.692 270.514,239.831 269.774 C 239.970 269.034,240.330 268.224,240.631 267.974 C 240.932 267.724,241.292 266.914,241.431 266.174 C 241.570 265.434,241.930 264.624,242.231 264.374 C 242.532 264.124,242.892 263.314,243.031 262.574 C 243.170 261.834,243.530 261.024,243.831 260.774 C 244.132 260.524,244.492 259.714,244.631 258.974 C 244.770 258.234,245.130 257.424,245.431 257.174 C 245.732 256.924,246.092 256.114,246.231 255.374 C 246.370 254.634,246.730 253.824,247.031 253.574 C 247.332 253.324,247.692 252.514,247.831 251.774 C 247.970 251.034,248.330 250.224,248.631 249.974 C 248.932 249.724,249.292 248.914,249.431 248.174 C 249.570 247.434,249.930 246.624,250.231 246.374 C 250.532 246.124,250.892 245.314,251.031 244.574 C 251.170 243.834,251.530 243.024,251.831 242.774 C 252.132 242.524,252.492 241.714,252.631 240.974 C 252.770 240.234,253.130 239.424,253.431 239.174 C 253.732 238.924,254.092 238.114,254.231 237.374 C 254.370 236.634,254.730 235.824,255.031 235.574 C 255.332 235.324,255.692 234.514,255.831 233.774 C 255.970 233.034,256.323 232.230,256.616 231.987 C 256.909 231.744,257.274 230.972,257.426 230.272 C 257.579 229.573,258.041 228.571,258.452 228.046 C 258.863 227.521,259.200 226.740,259.200 226.309 C 259.200 225.879,259.560 225.069,260.000 224.509 C 260.440 223.950,260.800 223.140,260.800 222.709 C 260.800 222.279,261.160 221.469,261.600 220.909 C 262.040 220.350,262.400 219.540,262.400 219.109 C 262.400 218.679,262.760 217.869,263.200 217.309 C 263.640 216.750,264.000 215.940,264.000 215.509 C 264.000 215.079,264.360 214.269,264.800 213.709 C 265.240 213.150,265.600 212.266,265.600 211.746 C 265.600 210.350,266.658 210.588,266.950 212.050 C 267.088 212.738,267.200 228.452,267.200 246.970 C 267.200 272.624,267.314 280.754,267.680 281.120 C 268.301 281.741,285.678 281.801,286.826 281.186 C 287.635 280.753,288.087 170.586,287.286 169.325 C 286.539 168.151,269.836 167.291,267.200 168.291 M197.604 190.200 C 197.605 190.420,197.963 191.140,198.400 191.800 C 199.436 193.364,199.437 192.808,198.401 191.110 C 197.962 190.389,197.604 189.980,197.604 190.200 M199.204 193.800 C 199.205 194.020,199.563 194.740,200.000 195.400 C 201.036 196.964,201.037 196.408,200.001 194.710 C 199.562 193.989,199.204 193.580,199.204 193.800 M186.800 207.022 C 186.800 207.364,187.339 208.219,187.998 208.922 C 188.657 209.625,189.197 210.015,189.198 209.789 C 189.199 209.563,188.840 209.070,188.400 208.693 C 187.960 208.316,187.600 207.646,187.600 207.204 C 187.600 206.762,187.420 206.400,187.200 206.400 C 186.980 206.400,186.800 206.680,186.800 207.022 M191.203 215.215 C 191.201 215.334,191.560 216.137,192.000 217.000 C 192.440 217.863,192.799 218.306,192.797 217.985 C 192.796 217.663,192.437 216.860,192.000 216.200 C 191.563 215.540,191.204 215.097,191.203 215.215 M192.803 218.815 C 192.801 218.934,193.160 219.737,193.600 220.600 C 194.040 221.463,194.399 221.906,194.397 221.585 C 194.396 221.263,194.037 220.460,193.600 219.800 C 193.163 219.140,192.804 218.697,192.803 218.815 " stroke="none" fill="#646464" fill-rule="evenodd"></path><path id="path4" d="M150.400 115.600 C 147.870 115.760,145.350 116.094,144.800 116.342 C 144.250 116.591,142.810 116.962,141.600 117.168 C 139.082 117.596,136.138 118.521,133.756 119.633 C 132.852 120.055,131.839 120.400,131.505 120.400 C 131.171 120.400,130.689 120.652,130.433 120.961 C 130.177 121.269,129.507 121.637,128.943 121.778 C 128.380 121.920,127.398 122.387,126.760 122.818 C 126.122 123.248,125.067 123.960,124.416 124.400 C 123.765 124.840,123.073 125.200,122.878 125.200 C 122.683 125.200,122.198 125.560,121.800 126.000 C 121.402 126.440,120.898 126.800,120.681 126.800 C 120.464 126.800,119.367 127.594,118.243 128.564 C 111.674 134.235,108.617 137.857,103.697 145.800 C 103.245 146.530,101.563 150.010,100.218 153.000 C 99.278 155.088,98.362 158.107,97.789 161.000 C 97.484 162.540,97.013 164.520,96.743 165.400 C 95.825 168.391,96.107 185.169,97.139 188.975 C 97.612 190.722,98.001 192.522,98.002 192.975 C 98.004 193.429,98.244 194.258,98.536 194.818 C 98.828 195.377,99.191 196.453,99.342 197.208 C 99.810 199.551,103.277 206.594,105.815 210.357 C 106.467 211.324,107.181 212.418,107.403 212.788 C 107.624 213.159,108.074 213.750,108.403 214.101 C 108.731 214.452,109.720 215.607,110.600 216.667 C 115.963 223.127,130.212 233.200,133.987 233.200 C 134.256 233.200,134.954 233.463,135.538 233.785 C 138.656 235.505,150.527 237.600,157.150 237.600 C 161.668 237.600,167.200 236.895,167.200 236.319 C 167.200 236.143,167.065 235.992,166.900 235.983 C 166.735 235.974,161.740 235.913,155.800 235.848 C 146.529 235.747,144.813 235.633,143.678 235.044 C 142.952 234.666,141.422 234.253,140.278 234.125 C 139.135 233.997,137.907 233.639,137.550 233.329 C 137.192 233.019,136.202 232.656,135.350 232.522 C 134.497 232.387,133.371 231.945,132.846 231.539 C 132.321 231.132,131.549 230.800,131.130 230.800 C 130.711 230.800,129.880 230.478,129.284 230.084 C 127.414 228.849,126.640 228.402,125.300 227.787 C 124.585 227.458,124.000 227.045,124.000 226.869 C 124.000 226.692,123.415 226.246,122.700 225.877 C 120.860 224.926,120.132 224.404,118.254 222.691 C 113.758 218.590,109.600 214.218,109.600 213.593 C 109.600 213.363,109.337 213.074,109.015 212.950 C 108.694 212.827,108.308 212.338,108.158 211.863 C 108.008 211.388,107.281 210.261,106.542 209.358 C 105.803 208.455,105.002 207.150,104.760 206.458 C 104.519 205.766,104.166 205.200,103.976 205.200 C 103.786 205.200,103.437 204.480,103.200 203.600 C 102.963 202.720,102.604 202.000,102.403 202.000 C 102.201 202.000,101.916 201.325,101.769 200.500 C 101.623 199.675,101.165 198.439,100.751 197.753 C 100.338 197.067,100.000 195.982,100.000 195.342 C 100.000 194.702,99.719 193.777,99.375 193.286 C 99.025 192.786,98.595 190.885,98.397 188.969 C 98.202 187.085,97.809 184.881,97.522 184.072 C 96.723 181.814,96.857 170.857,97.722 167.816 C 98.095 166.505,98.400 164.522,98.400 163.410 C 98.400 162.152,98.702 160.824,99.200 159.896 C 99.640 159.075,100.000 157.905,100.000 157.296 C 100.000 156.686,100.360 155.516,100.800 154.696 C 101.240 153.875,101.600 152.916,101.600 152.565 C 101.600 152.213,101.960 151.469,102.400 150.909 C 102.840 150.350,103.200 149.581,103.200 149.200 C 103.200 148.819,103.560 148.050,104.000 147.491 C 104.440 146.931,104.800 146.196,104.800 145.857 C 104.800 145.517,105.046 145.096,105.346 144.920 C 105.646 144.744,106.231 143.991,106.646 143.248 C 107.858 141.075,108.155 140.633,109.000 139.743 C 109.440 139.280,110.200 138.383,110.689 137.751 C 111.179 137.118,112.304 135.804,113.189 134.832 C 114.075 133.860,114.800 132.915,114.800 132.732 C 114.800 132.549,114.988 132.400,115.218 132.400 C 115.568 132.400,120.171 128.807,120.800 128.043 C 121.238 127.511,123.593 126.000,123.984 126.000 C 124.213 126.000,124.734 125.685,125.142 125.300 C 126.091 124.404,129.830 122.400,130.551 122.400 C 130.854 122.400,131.310 122.150,131.563 121.844 C 131.817 121.539,132.829 121.086,133.812 120.839 C 134.795 120.591,135.600 120.222,135.600 120.019 C 135.600 119.815,136.455 119.528,137.500 119.381 C 138.545 119.234,139.800 118.862,140.289 118.554 C 140.778 118.247,142.793 117.829,144.766 117.625 C 146.738 117.420,148.759 117.036,149.255 116.770 C 150.475 116.118,163.734 116.130,165.400 116.786 C 166.060 117.045,168.101 117.428,169.936 117.637 C 171.771 117.846,173.751 118.260,174.336 118.556 C 174.921 118.853,176.240 119.218,177.267 119.368 C 178.294 119.517,179.351 119.900,179.616 120.220 C 179.881 120.539,180.426 120.800,180.828 120.800 C 181.229 120.800,182.404 121.250,183.438 121.800 C 184.473 122.350,185.562 122.800,185.860 122.800 C 186.157 122.800,186.400 122.966,186.400 123.169 C 186.400 123.372,187.030 123.746,187.800 124.000 C 188.570 124.254,189.200 124.606,189.200 124.782 C 189.200 124.959,189.777 125.342,190.483 125.634 C 191.188 125.927,192.067 126.443,192.435 126.783 C 192.804 127.122,193.575 127.760,194.149 128.200 C 198.051 131.192,203.600 136.717,203.600 137.612 C 203.600 137.810,203.960 138.165,204.400 138.400 C 204.840 138.635,205.200 138.994,205.200 139.196 C 205.200 139.640,206.937 142.347,207.790 143.234 C 208.126 143.582,208.400 144.143,208.400 144.480 C 208.400 144.816,208.760 145.550,209.200 146.109 C 209.640 146.669,210.000 147.490,210.000 147.935 C 210.000 148.379,210.270 149.013,210.600 149.343 C 210.930 149.673,211.200 150.046,211.200 150.171 C 211.200 150.297,206.241 150.400,200.180 150.400 L 189.159 150.400 188.567 148.983 C 188.241 148.203,187.710 147.464,187.387 147.340 C 187.064 147.216,186.800 146.861,186.800 146.551 C 186.800 145.792,180.170 139.200,179.406 139.200 C 179.073 139.200,178.800 139.021,178.800 138.803 C 178.800 138.437,177.246 137.498,174.800 136.388 C 174.250 136.138,173.134 135.589,172.321 135.167 C 171.507 134.745,170.373 134.400,169.801 134.400 C 169.229 134.400,168.184 134.085,167.480 133.700 C 165.610 132.678,148.996 132.654,146.588 133.670 C 145.715 134.039,144.303 134.436,143.450 134.553 C 142.598 134.670,141.594 135.043,141.219 135.383 C 140.844 135.722,140.146 136.000,139.669 136.000 C 139.191 136.000,138.440 136.360,138.000 136.800 C 137.560 137.240,136.853 137.600,136.429 137.600 C 136.004 137.600,135.343 137.914,134.960 138.297 C 134.576 138.681,133.957 139.176,133.584 139.397 C 131.589 140.581,128.578 143.012,127.137 144.600 C 125.089 146.859,123.897 148.413,123.380 149.500 C 123.041 150.215,122.609 150.800,122.420 150.800 C 122.232 150.800,121.888 151.345,121.656 152.012 C 121.423 152.678,120.956 153.501,120.617 153.840 C 120.277 154.180,119.999 154.759,119.997 155.129 C 119.996 155.498,119.637 156.340,119.200 157.000 C 118.763 157.660,118.404 158.606,118.403 159.101 C 118.401 159.597,118.040 160.675,117.600 161.496 C 117.119 162.394,116.800 163.752,116.800 164.907 C 116.800 165.962,116.503 167.495,116.140 168.313 C 115.189 170.455,115.194 182.316,116.147 184.487 C 116.506 185.305,116.800 186.838,116.800 187.893 C 116.800 189.048,117.119 190.406,117.600 191.304 C 118.040 192.125,118.400 193.223,118.400 193.745 C 118.400 194.266,118.760 195.150,119.200 195.709 C 119.640 196.269,120.000 197.079,120.000 197.509 C 120.000 197.940,120.360 198.750,120.800 199.309 C 121.240 199.869,121.600 200.468,121.600 200.642 C 121.600 201.107,123.716 204.148,124.299 204.520 C 124.574 204.696,124.800 205.014,124.800 205.227 C 124.800 207.487,136.880 216.451,141.206 217.401 C 141.948 217.564,142.778 217.921,143.051 218.194 C 143.324 218.467,144.639 218.814,145.972 218.965 C 147.305 219.116,149.057 219.515,149.864 219.852 C 152.044 220.763,164.040 220.462,165.900 219.449 C 167.142 218.773,167.769 217.696,166.677 218.115 C 163.327 219.401,146.728 219.034,145.045 217.638 C 144.770 217.409,143.624 217.025,142.499 216.784 C 141.373 216.542,140.238 216.087,139.977 215.772 C 139.716 215.458,139.356 215.200,139.177 215.200 C 138.673 215.200,137.123 214.468,135.800 213.606 C 135.140 213.176,134.060 212.524,133.400 212.156 C 132.140 211.455,125.754 205.170,124.907 203.798 C 124.636 203.359,124.006 202.370,123.507 201.600 C 123.007 200.830,122.087 199.120,121.462 197.800 C 120.836 196.480,120.088 194.950,119.799 194.400 C 119.510 193.850,119.139 192.680,118.974 191.800 C 118.809 190.920,118.447 189.654,118.168 188.987 C 116.661 185.377,116.677 166.600,118.189 163.600 C 118.466 163.050,118.824 161.880,118.983 161.000 C 119.143 160.120,119.515 158.950,119.810 158.400 C 120.104 157.850,120.827 156.336,121.415 155.036 C 123.923 149.490,129.645 143.038,135.009 139.709 C 136.783 138.608,141.526 136.400,142.118 136.400 C 142.467 136.400,142.857 136.232,142.983 136.027 C 143.110 135.822,144.246 135.452,145.507 135.206 C 146.768 134.960,148.892 134.498,150.226 134.179 C 153.321 133.440,160.760 133.428,163.616 134.158 C 164.817 134.465,166.610 134.844,167.600 135.000 C 169.422 135.286,169.975 135.488,174.091 137.368 C 179.048 139.633,183.330 143.303,186.396 147.915 C 188.931 151.728,188.085 151.512,200.671 151.560 C 213.187 151.608,213.415 151.525,211.220 147.727 C 210.989 147.327,210.621 146.550,210.401 146.000 C 209.956 144.884,209.853 144.712,206.936 140.187 C 205.105 137.346,202.216 133.793,199.791 131.399 C 197.303 128.941,190.077 123.600,189.241 123.600 C 189.058 123.600,188.464 123.251,187.922 122.825 C 187.380 122.398,186.463 121.931,185.885 121.786 C 185.306 121.640,184.623 121.269,184.367 120.961 C 184.111 120.652,183.629 120.400,183.295 120.400 C 182.961 120.400,181.948 120.055,181.044 119.633 C 178.696 118.537,175.744 117.603,173.200 117.151 C 171.990 116.937,170.100 116.515,169.000 116.214 C 166.531 115.539,156.573 115.210,150.400 115.600 M159.030 170.300 C 154.286 170.374,151.262 170.582,150.930 170.858 C 149.962 171.661,150.185 185.857,151.174 186.386 C 152.199 186.935,167.200 186.948,167.200 186.400 C 167.200 186.147,164.333 186.000,159.400 186.000 L 151.600 186.000 151.600 179.000 L 151.600 172.000 158.920 172.000 C 166.273 172.000,167.200 171.834,167.200 170.520 C 167.200 170.234,167.065 170.041,166.900 170.091 C 166.735 170.140,163.194 170.235,159.030 170.300 M190.000 170.786 C 190.000 171.814,192.020 172.000,203.174 172.000 L 214.800 172.000 214.786 181.300 C 214.774 189.655,214.694 190.762,214.000 192.200 C 213.575 193.080,213.221 194.296,213.214 194.901 C 213.206 195.507,212.840 196.675,212.400 197.496 C 211.960 198.316,211.600 199.225,211.600 199.515 C 211.600 200.001,211.115 201.073,209.481 204.200 C 207.894 207.237,207.227 208.920,207.460 209.298 C 207.781 209.816,209.245 207.478,211.030 203.600 C 211.789 201.950,212.678 200.090,213.005 199.468 C 213.332 198.845,213.608 198.035,213.618 197.668 C 213.627 197.300,213.915 196.280,214.257 195.400 C 216.134 190.568,217.272 172.530,215.794 171.051 C 215.035 170.292,190.000 170.034,190.000 170.786 M192.953 224.506 C 189.868 226.304,187.990 227.932,188.032 228.770 C 188.052 229.183,188.133 229.228,188.265 228.900 C 188.376 228.625,188.677 228.399,188.933 228.398 C 189.190 228.397,190.349 227.677,191.508 226.798 C 192.668 225.919,193.898 225.200,194.241 225.200 C 194.585 225.200,194.795 224.986,194.708 224.725 C 194.474 224.022,193.905 223.951,192.953 224.506 " stroke="none" fill="#077850" fill-rule="evenodd"></path></g></svg>